<svg width="37" height="34" viewBox="0 0 37 34" fill="none" xmlns="http://www.w3.org/2000/svg">
<path d="M19.4828 7.4321V7.47496C19.4822 8.31319 19.6291 9.14524 19.9171 9.93448L19.9002 9.88333C20.1802 10.6524 20.6558 11.3386 21.2821 11.8769L21.2877 11.8811C21.8813 12.4051 22.671 12.7244 23.5367 12.7244H23.6044H23.6016C24.7438 12.718 25.8377 12.2716 26.6473 11.4815C27.5318 10.6855 28.2199 9.70262 28.6595 8.60725L28.6778 8.55472C29.1039 7.51951 29.3282 6.41513 29.3391 5.29885V5.25046C29.3391 4.38776 29.1854 3.55962 28.9048 2.79094L28.9218 2.84209C28.6418 2.07302 28.1662 1.38679 27.5399 0.848476L27.5343 0.844328C26.897 0.282199 26.0646 -0.0195483 25.2077 0.000982997H25.2119C24.0693 0.00577129 22.9748 0.452415 22.1662 1.24388C21.2905 2.03983 20.6082 3.01827 20.1695 4.10711L20.1512 4.15964C19.7437 5.12742 19.5026 6.25142 19.4899 7.42795V7.4321H19.4828ZM27.0196 17.8675L27.0182 17.9836C27.0165 19.0232 27.3441 20.0377 27.9559 20.8869L27.9446 20.8703C28.2235 21.2643 28.5956 21.5863 29.029 21.8087C29.4623 22.0312 29.9442 22.1475 30.4333 22.1478L30.5729 22.145H30.5659C31.7217 22.1325 32.8325 21.7045 33.6878 20.9422L33.6835 20.9464C34.5933 20.1823 35.3292 19.2393 35.8435 18.1785C36.3577 17.1177 36.6388 15.9627 36.6686 14.7886V14.7775L36.67 14.6641C36.67 13.5788 36.3232 12.5724 35.7324 11.747L35.7436 11.7636C35.4534 11.3476 35.0597 11.0112 34.5997 10.7861C34.1397 10.5611 33.6288 10.455 33.1153 10.4778H33.1223C31.9666 10.4903 30.8557 10.9183 30.0005 11.6806L30.0047 11.6765C29.0935 12.4451 28.3569 13.3926 27.8427 14.4579C27.3285 15.5231 27.0481 16.6823 27.0196 17.8605V17.8702V17.8675ZM18.3322 17.284C16.2736 17.3942 14.3019 18.1345 12.6948 19.4007L12.7145 19.3855C10.7473 20.7554 9.05222 22.4665 7.71305 24.4345L7.66792 24.505C6.46088 26.095 5.75547 27.9969 5.63885 29.9757L5.63744 30.0033L5.63461 30.1236C5.63461 30.6822 5.77421 31.2103 6.02097 31.6734L6.01251 31.6555C6.24927 32.0802 6.61905 32.419 7.06724 32.6219L7.08134 32.6274C7.49166 32.8196 7.96968 32.9703 8.46884 33.0546L8.50268 33.0587C9.02317 33.1392 9.54938 33.179 10.0763 33.1776H10.1821H10.1764C11.6293 33.0833 13.0547 32.7438 14.3897 32.1739L14.3079 32.2057C15.5687 31.6667 16.9128 31.3391 18.2843 31.2366L18.328 31.2338C19.8833 31.3472 21.3244 31.69 22.6639 32.2278L22.5694 32.1947C23.9663 32.7447 25.4449 33.0688 26.9477 33.1541L26.9872 33.1555C29.6813 33.1574 31.0284 32.1071 31.0284 30.0047C30.9673 28.5316 30.5352 27.0962 29.7706 25.8267L29.7946 25.8682C28.9696 24.347 27.9332 22.9456 26.715 21.704L26.7207 21.7095C25.53 20.4902 24.1683 19.4432 22.6766 18.6002L22.5892 18.5546C21.3152 17.7752 19.8554 17.3362 18.3548 17.2813H18.3378L18.3322 17.284ZM13.0656 12.7258H13.1305C13.962 12.7267 14.7644 12.4252 15.3824 11.8797L15.3795 11.8825C16.0008 11.3521 16.4744 10.6756 16.7558 9.91651L16.767 9.88333C17.0468 9.11011 17.1885 8.29538 17.1858 7.47496V7.42933V7.4321C17.1731 6.25003 16.932 5.12742 16.5019 4.09881L16.5245 4.15964C16.0876 3.05242 15.4001 2.05688 14.5138 1.24803L14.5081 1.24388C13.6993 0.453764 12.6056 0.00774698 11.4638 0.00236553H11.3975C10.5318 0.00236553 9.74212 0.323113 9.14566 0.848476L9.14849 0.845711C8.53088 1.37522 8.05428 2.04713 7.77227 2.81167L7.76098 2.84485C7.49166 3.56654 7.33656 4.4002 7.33656 5.26844V5.29609V5.2947C7.34877 6.43449 7.58081 7.56172 8.02044 8.61693L7.99788 8.5561C8.43514 9.66936 9.12799 10.669 10.0227 11.4774L10.0284 11.4829C10.8384 12.271 11.9316 12.7158 13.0727 12.7217H13.0741L13.0656 12.7258ZM3.54773 10.4806L3.418 10.4778C2.38725 10.4778 1.47776 10.9838 0.933472 11.7567L0.926422 11.7663C0.320648 12.6173 -0.00284576 13.6306 1.14441e-05 14.6683L0.00142288 14.7872V14.7816C0.0291939 15.9551 0.308289 17.1097 0.82061 18.1705C1.33293 19.2314 2.06702 20.1748 2.97524 20.9394L2.98652 20.9491C3.84043 21.7086 4.94853 22.135 6.10134 22.1478H6.10416C6.61337 22.1702 7.12009 22.066 7.57717 21.8448C8.03426 21.6236 8.42685 21.2927 8.71842 20.8828L8.72547 20.8731C9.35537 19.9937 9.67971 18.9389 9.65047 17.8647V17.8702C9.62347 16.6926 9.34485 15.5337 8.83262 14.4683C8.32038 13.4028 7.58591 12.4546 6.67665 11.6848L6.66537 11.6751C5.81243 10.918 4.70666 10.4927 3.55619 10.4792H3.55336L3.54773 10.4806Z" fill="#003459"/>
</svg>
