<svg width="1421" height="575" viewBox="0 0 1421 575" fill="none" xmlns="http://www.w3.org/2000/svg">
<path d="M247.633 433H24.15V388.15L171.733 216.417H28.75V164.667H247.633V209.517L100.05 381.25H247.633V433ZM474.186 433H417.836V410.767C403.653 426.483 384.103 436.833 355.736 436.833C317.02 436.833 285.203 414.6 285.203 373.967V373.2C285.203 328.35 319.32 307.65 368.003 307.65C388.703 307.65 403.653 311.1 418.22 316.083V312.633C418.22 288.483 403.27 275.067 374.136 275.067C351.903 275.067 336.186 279.283 317.403 286.183L302.836 241.717C325.453 231.75 347.686 225.233 382.57 225.233C446.203 225.233 474.186 258.2 474.186 313.783V433ZM418.986 360.55V350.2C409.02 345.6 395.986 342.533 381.803 342.533C356.886 342.533 341.553 352.5 341.553 370.9V371.667C341.553 387.383 354.586 396.583 373.37 396.583C400.586 396.583 418.986 381.633 418.986 360.55ZM837.892 433H779.625V318.383C779.625 290.783 767.358 276.6 745.508 276.6C723.658 276.6 710.242 290.783 710.242 318.383V433H651.975V318.383C651.975 290.783 639.708 276.6 617.858 276.6C596.008 276.6 582.592 290.783 582.592 318.383V433H524.325V227.533H582.592V256.667C596.008 239.417 613.642 223.7 643.158 223.7C669.992 223.7 690.308 235.583 701.042 256.283C719.058 235.2 740.525 223.7 768.508 223.7C811.825 223.7 837.892 249.767 837.892 299.217V433ZM1104.38 330.65C1104.38 399.267 1059.53 436.833 1010.85 436.833C979.8 436.833 960.633 422.65 946.833 406.167V494.333H888.567V227.533H946.833V257.05C961.017 237.883 980.567 223.7 1010.85 223.7C1058.77 223.7 1104.38 261.267 1104.38 329.883V330.65ZM1046.12 330.65V329.883C1046.12 295.767 1023.12 273.15 995.9 273.15C968.683 273.15 946.067 295.767 946.067 329.883V330.65C946.067 364.767 968.683 387.383 995.9 387.383C1023.12 387.383 1046.12 365.15 1046.12 330.65ZM1359.61 330.65C1359.61 389.683 1312.08 437.6 1248.06 437.6C1184.43 437.6 1137.28 390.45 1137.28 331.417V330.65C1137.28 271.617 1184.81 223.7 1248.83 223.7C1312.46 223.7 1359.61 270.85 1359.61 329.883V330.65ZM1302.11 331.417V330.65C1302.11 300.367 1280.26 273.917 1248.06 273.917C1214.71 273.917 1194.78 299.6 1194.78 329.883V330.65C1194.78 360.933 1216.63 387.383 1248.83 387.383C1282.18 387.383 1302.11 361.7 1302.11 331.417Z" fill="white"/>
<path d="M1414.07 163.808C1405.08 157.324 1390.36 161.07 1381.07 172.164C1371.77 183.258 1371.54 197.522 1380.45 204.006C1389.43 210.489 1404.15 206.743 1413.45 195.649C1422.75 184.555 1422.98 170.291 1414.07 163.808V163.808Z" fill="white"/>
<path d="M1202.57 144.946C1213.14 143.324 1220.06 129.96 1218.02 115.052C1215.98 100.143 1205.85 89.3279 1195.29 90.9502C1184.72 92.5724 1177.8 105.936 1179.84 120.845C1181.88 135.754 1192.01 146.569 1202.57 144.946Z" fill="white"/>
<path d="M1339.45 158.653C1354.06 166.03 1376.19 152.077 1388.78 127.459C1401.38 102.84 1399.76 76.8586 1385.07 69.4811C1370.45 62.1036 1348.33 76.0567 1335.73 100.675C1323.14 125.294 1324.75 151.275 1339.45 158.653Z" fill="white"/>
<path d="M1263.79 137.221C1278.52 139.096 1292.81 119.804 1295.65 94.1857C1298.5 68.4895 1288.87 46.2298 1274.07 44.3553C1259.34 42.4808 1245.05 61.7725 1242.2 87.3907C1239.36 113.087 1248.99 135.347 1263.79 137.221Z" fill="white"/>
</svg>
